<svg width="512" height="512" viewBox="0 0 512 512" fill="none" xmlns="http://www.w3.org/2000/svg">
<rect width="512" height="512" fill="#BC58BC"/>
<path d="M258.149 81.7794H241.554V85.6515H258.149V81.7794ZM228.279 81.7794H214.262C213.388 81.7794 212.497 81.7794 211.618 81.7794L211.684 85.6515H213.487H228.279V81.7794ZM198.038 82.6202C192.393 83.2068 186.785 84.1043 181.239 85.3085L182.057 89.0921H182.146H182.195L182.417 89.0478H182.466H182.511H182.561H182.605H182.655H182.704L182.931 89.0036H182.981H183.031H183.086H183.136L183.523 88.9206H183.573H183.623L184.01 88.8432H184.076H184.126L184.519 88.7657H184.574H184.624H184.679L185.127 88.6772H185.182C189.516 87.8364 193.891 87.1855 198.309 86.7246L197.91 82.8525L198.038 82.6202ZM168.073 88.7823C162.656 90.4769 157.335 92.4694 152.137 94.7508L153.692 98.2965C157.099 96.8215 160.554 95.4552 164.058 94.1977L164.417 94.0705H164.467H164.511H164.555H164.6H164.649H164.705H164.744H164.782H164.815H164.843H164.876H164.909H164.948L165.098 94.0207H165.142H165.181H165.225H165.275C166.497 93.6058 167.719 93.2075 168.953 92.8203L167.797 89.1253L168.073 88.7823ZM139.929 100.769C134.957 103.504 130.137 106.508 125.492 109.769L127.704 112.938C132.233 109.759 136.933 106.83 141.782 104.165L139.918 100.769H139.929ZM114.705 118.066C111.204 121.003 107.785 124.151 104.533 127.398C103.781 128.15 103.028 128.913 102.293 129.682L105.086 132.365L105.849 131.569L105.921 131.497L105.988 131.425L106.021 131.392L106.076 131.331L106.109 131.298L106.154 131.253V131.226L106.187 131.192L106.226 131.154L106.259 131.115H106.286L106.336 131.065V131.038L106.38 130.999L106.43 130.944L106.486 130.888L106.53 130.844L106.585 130.789L106.64 130.728L106.69 130.678L106.751 130.623L106.806 130.562L106.862 130.507L106.917 130.446L106.978 130.385L107.05 130.313L107.116 130.241L107.183 130.169L107.254 130.097C110.359 127.018 113.568 124.084 116.879 121.297L114.39 118.332L114.705 118.066ZM93.2929 139.905C89.7255 144.317 86.4016 148.92 83.3362 153.695L86.5942 155.786C88.2648 153.178 90.0201 150.619 91.8602 148.108L91.8934 148.058L91.9322 148.008L91.9653 147.958L92.0041 147.914L92.0373 147.87L92.1534 147.715L92.1921 147.671L92.2198 147.627L92.2475 147.588V147.549V147.51L92.2806 147.472L92.3138 147.427L92.3525 147.372L92.3913 147.322L92.4244 147.278L92.4521 147.245L92.4798 147.212V147.179V147.151V147.123V147.096L92.524 147.035V147.007V146.979V146.952V146.919V146.885V146.858L92.6568 146.686L92.6844 146.642L92.7121 146.603L92.7398 146.565L92.7674 146.531L92.7951 146.498L92.8283 146.459L93.0053 146.227L93.0329 146.183V146.144L93.0661 146.105C93.4201 145.641 93.7797 145.182 94.1392 144.723C94.6407 144.081 95.1478 143.441 95.6604 142.803L92.6512 140.369L93.2929 139.905ZM76.4882 165.455C73.8528 170.483 71.4983 175.654 69.4355 180.943L73.042 182.348C75.0537 177.197 77.3491 172.161 79.9177 167.264L76.4882 165.46V165.455ZM65.0545 193.831C63.4701 199.288 62.1885 204.828 61.2156 210.426L65.0268 211.09C65.9744 205.639 67.2247 200.244 68.7717 194.932L65.0545 193.826V193.831ZM59.4732 223.912C59.1026 228.282 58.9201 232.762 58.9201 237.149V240.816H62.7921V237.149V236.441V236.042V235.738V235.345V235.041V234.643V234.245V233.542V232.834V232.22C62.7921 232.154 62.7921 232.093 62.7921 232.032V231.827V231.728V231.529C62.7921 231.462 62.7921 231.401 62.7921 231.335V231.136C62.7921 231.07 62.7921 231.009 62.7921 230.942V230.843C62.7921 230.743 62.7921 230.644 62.7921 230.55C62.8862 228.464 63.0189 226.384 63.1904 224.321L59.3183 223.995L59.4732 223.912ZM52.8354 247.277C51.6738 248.234 50.5287 249.241 49.4335 250.264C46.2689 253.21 43.3634 256.423 40.749 259.867L43.8356 262.212C44.1343 261.814 44.4385 261.421 44.7483 261.034L44.776 260.995V260.967L44.8036 260.934L44.8645 260.862V260.829V260.801L44.964 260.68V260.647V260.613V260.58C46.9199 258.181 49.03 255.912 51.281 253.787H51.3087H51.3363L51.4193 253.71H51.4525L51.4968 253.666L51.5355 253.627C52.5533 252.681 53.5932 251.774 54.6608 250.889L52.1993 247.902L52.8354 247.277ZM33.5912 266.538C30.3331 267.425 27.3243 269.053 24.7997 271.296C22.2751 273.538 20.3031 276.334 19.0378 279.465L22.6278 280.914C22.9995 279.984 23.4511 279.089 23.9775 278.237V277.639L24.1489 277.39C24.5548 276.84 24.9906 276.312 25.4544 275.808L25.4931 275.77L25.5263 275.731L25.5595 275.692L25.6148 275.637L25.6535 275.604L25.6922 275.571C26.4885 274.824 27.3514 274.152 28.2699 273.563L28.469 273.435H28.5133L28.7124 273.308H28.7622L28.8065 273.281H28.8507H28.895L28.9614 273.236H29.0056H29.0499H29.0941L29.1384 273.209H29.1882H29.2324H29.2766H29.3209H29.3651H29.4149L29.5311 273.148H29.5753L29.6251 273.12L29.8353 273.015L29.8851 272.987C30.9476 272.461 32.0593 272.041 33.204 271.732L32.1973 267.992L33.5912 266.538ZM22.4729 293.869L18.8387 295.213C19.0958 295.904 19.3875 296.581 19.7127 297.243C18.2495 300.244 17.4926 303.54 17.5001 306.879C17.4998 307.951 17.5775 309.021 17.7324 310.082L21.5657 309.529V309.479V309.357V309.302V309.247C21.5104 308.8 21.4717 308.347 21.4495 307.886V307.808V307.753V307.72V307.377V307.349V307.305V307.277V307.227V307.178C21.4324 303.768 22.3921 300.424 24.2153 297.542V297.514C23.5863 296.5 23.06 295.425 22.6444 294.306L22.4729 293.869ZM27.9546 320.785L25.5152 323.794C29.4179 326.985 34.3033 328.728 39.344 328.728C41.0746 328.728 42.7992 328.526 44.4828 328.126L43.5812 324.359H43.288C42.3019 324.579 41.299 324.716 40.2899 324.768H35.743H35.6877H35.5549H35.4996H35.3724H35.3115H35.1843H35.1235H35.0018H34.9354H34.8137H34.7529H34.6256H34.5648H34.4431H34.3822H34.2827H34.1942H34.1001L34.0116 324.74H33.9176L33.8291 324.713H33.735H33.6521H33.5525H33.4695H33.3921H33.3036H33.2317L33.1432 324.679L33.0325 324.641H32.9828L32.8777 324.596H32.7062L32.579 324.541H32.5513L32.4241 324.486H32.3743L32.2471 324.431L32.1143 324.375L31.9871 324.32L31.8543 324.259L31.6829 324.176L31.5335 324.104L31.4118 324.043L31.2901 323.982L31.1629 323.916L31.0412 323.85L30.9195 323.783L30.8144 323.728L30.6927 323.656L30.5931 323.595L30.4936 323.534L30.394 323.474L30.2945 323.407L30.1949 323.341L30.1174 323.291L30.0455 323.241H30.0179L29.946 323.186L29.8741 323.136L29.8021 323.086L29.7524 323.053L29.7081 323.02L29.6639 322.987L27.9546 320.785ZM62.8032 324.353C61.4329 324.677 60.0295 324.841 58.6214 324.84H57.1057C56.6853 324.799 56.2649 324.749 55.8445 324.69L55.2527 328.518C56.3677 328.686 57.4937 328.771 58.6214 328.773H58.9311V334H62.8032V324.37V324.353ZM62.8032 347.215H58.9311V363.809H62.8032V347.215ZM62.8032 377.085H58.9311V391.19C58.9311 392.109 58.9643 393.038 59.0251 393.956L62.8972 393.685C62.8474 393.016 62.8198 392.346 62.8142 391.666V391.589V391.511V391.439V391.29V377.102L62.8032 377.085ZM66.2714 406.435L62.7866 408.095C65.4696 413.643 69.4136 418.487 74.3032 422.239L76.6596 419.163C75.3348 418.146 74.0835 417.037 72.9148 415.844L72.8263 415.75L72.7599 415.678L72.7157 415.634L72.6769 415.584L72.6161 415.518C70.7447 413.478 69.1184 411.226 67.7705 408.808C67.7536 408.782 67.7388 408.754 67.7262 408.725V408.698L67.6764 408.615V408.587C67.6651 408.556 67.6502 408.526 67.6322 408.499V408.471L67.6045 408.416V408.377V408.349L67.5713 408.283L67.4939 408.144L67.0791 407.309L66.2714 406.435ZM88.4528 425.11L87.3963 428.832C90.8552 429.812 94.4329 430.309 98.0279 430.309H104.909V426.437H95.2123H95.1349H95.0187C93.6215 426.319 92.2325 426.117 90.859 425.834L90.671 425.796H90.6433H90.5659H90.4276H90.3889H90.3169H90.2782H89.9242H89.891H89.8523H89.7859H89.7472H89.6753H89.5702L88.4196 425.491L88.4528 425.11ZM134.486 424.003C132.025 424.972 129.463 425.659 126.847 426.05L126.642 426.083H126.438H126.338H126.239H126.167H126.134H126.034H125.929H125.829H125.73H125.625H118.212V429.955H121.664C126.544 429.96 131.38 429.042 135.919 427.25L134.486 424.014V424.003ZM159.317 410.667H151.02L150.904 410.833V410.86L150.644 411.214V411.242L150.605 411.297C149.358 412.952 147.968 414.494 146.451 415.905L149.089 418.743C150.815 417.133 152.394 415.372 153.808 413.482H160.114V409.61L159.317 410.667ZM186.422 400.395C182.484 404.318 177.676 407.256 172.388 408.969L173.583 412.653C179.446 410.747 184.779 407.488 189.149 403.138L186.422 400.373V400.395ZM200.687 373.29H196.815V375.398V375.426V376.349V376.41V378.313C196.818 378.355 196.818 378.398 196.815 378.44V378.545V378.739C196.815 378.822 196.815 378.905 196.815 378.982V379.065V379.093C196.815 379.237 196.777 379.381 196.76 379.524V379.552V379.58V379.607V379.635V379.663C196.76 379.818 196.71 379.967 196.683 380.122V380.177V380.205V380.232V380.282C196.649 380.459 196.616 380.642 196.577 380.835V380.891V380.918V380.946V380.974C196.577 381.118 196.517 381.256 196.483 381.4V383.291V383.363V383.463C196.483 383.518 196.456 383.579 196.439 383.64V383.712V384.149V384.221C196.439 384.293 196.395 384.365 196.378 384.436V384.464V384.492V384.547C195.972 385.923 195.479 387.272 194.901 388.585L198.447 390.134C200.609 385.207 201.721 379.883 201.711 374.502V373.335L200.687 373.29ZM200.687 343.42H196.815V360.015H200.687V343.464V343.42ZM208.714 337.203H204.366V341.075H208.714C212.461 341.076 216.192 341.572 219.81 342.552L220.817 338.812C217.755 337.986 214.617 337.474 211.452 337.286H208.714V337.203ZM225.861 348.459H221.989V365.054H225.861V348.459ZM225.983 378.33L222.111 378.65C222.625 384.809 224.589 390.759 227.842 396.014L231.16 393.967C230.248 392.505 229.447 390.976 228.765 389.393C228.745 389.355 228.726 389.316 228.71 389.276V389.249L228.66 389.133L228.627 389.05V389.017V388.928V388.9V388.784V388.663V388.27V388.231V388.203L228.599 388.137L228.572 388.065L228.533 387.966C227.957 386.424 227.491 384.844 227.139 383.236V383.208C227.139 383.17 227.139 383.125 227.139 383.081C227.136 383.048 227.136 383.015 227.139 382.982V382.91V382.805V382.76V382.473V382.312V382.246V382.218V382.124V381.632V381.538C226.962 380.515 226.829 379.469 226.741 378.413L225.983 378.33ZM240.066 403.664L237.754 406.767C242.701 410.45 248.447 412.914 254.526 413.958L255.178 410.141C249.699 409.206 244.52 406.985 240.066 403.658V403.664ZM265.876 415.999L263.111 418.732C267.463 423.096 272.777 426.381 278.626 428.323L279.838 424.645C276.307 423.476 272.983 421.759 269.986 419.556H269.959H269.931H269.903H269.876L269.582 419.335L269.45 419.23L269.394 419.18L269.206 419.008L268.874 418.699L268.459 418.289L265.876 415.999ZM309.531 426.437H292.936V430.309H309.531V426.437ZM337.36 417.952L337.31 417.996L337.211 418.079L337.111 418.157L337.012 418.234L336.812 418.394L336.713 418.477L336.641 418.538L336.569 418.599L336.47 418.676L336.37 418.754L336.298 418.809L336.248 418.848L336.149 418.925L336.049 419.003C332.205 421.913 327.803 424.002 323.116 425.137L324.029 428.899C330.019 427.447 335.583 424.605 340.27 420.601L337.747 417.659L337.36 417.952ZM349.662 391.732C349.662 392.286 349.662 392.778 349.607 393.292V393.32V393.403V393.486V393.834V393.901V393.956V393.984V394.083V394.111V394.144C349.204 398.84 347.859 403.406 345.652 407.569L349.07 409.378C351.959 403.919 353.512 397.853 353.601 391.677L349.729 391.616L349.662 391.732ZM353.534 361.862H349.662V378.457H353.534V361.862ZM353.534 331.992H349.662V348.587H353.534V331.992ZM349.662 317.057V323.108C352.544 326.555 354.491 328.789 356.046 330.344C356.046 330.344 356.178 330.488 356.527 330.897L359.431 328.336C359.193 328.059 358.972 327.816 358.844 327.678L357.296 329.177L358.817 327.655C356.82 325.653 353.971 322.268 349.679 317.085L349.662 317.057ZM368.613 337.9L366.019 340.776C370.335 344.668 375.052 348.091 380.091 350.987L382.016 347.63C377.215 344.872 372.722 341.61 368.613 337.9ZM394.025 353.25L392.675 356.878C398.093 358.878 403.683 360.376 409.375 361.353L410.033 357.537C408.462 357.264 406.932 356.96 405.442 356.624L405.248 356.58L405.116 356.552H405.055L404.928 356.524H404.872L404.745 356.491H404.695H404.634H404.585H404.529H404.468H404.419H404.363H404.303H404.258L404.142 356.464H404.098H404.043H403.993H403.949H403.893H403.843H403.799H403.738H403.694H403.639H403.583H403.539H403.484H403.434H403.395H403.335H403.285H403.24H403.18H403.135H403.086H403.03H402.986L402.87 356.43H402.826H402.765H402.709H402.665H402.604H402.555H402.51H402.449H402.4H402.35H402.295H402.25H402.189H402.134H402.09H402.035H401.979H401.929H401.869H401.819H401.769H401.714H401.664L401.548 356.397H401.498L401.382 356.364H401.332L401.216 356.331L401.039 356.281L400.917 356.248H400.862L400.74 356.209H400.679L400.558 356.176L400.381 356.121L400.198 356.065L400.016 356.01L399.894 355.977L399.534 355.866C398.694 355.606 397.875 355.313 397.056 355.064L396.769 354.97L396.597 354.915L396.426 354.854L396.315 354.815H396.26L396.155 354.776H396.11L396.005 354.738H395.961H395.906H395.861H395.817H395.767H395.729H395.69H395.64H395.607H395.563H395.524H395.491H395.458L395.358 354.699H395.325L395.214 354.66H395.181H395.142L394.025 353.25ZM439.754 358.04H439.654H439.621H439.505H439.461H439.383H439.334H439.212H439.151H439.079H439.018H438.952H438.836H438.78H438.703H438.642H438.526H438.404H438.349H438.272H438.216H438.095H438.045H437.918H437.796H437.674H437.63H437.503H437.375H437.326H437.198H437.071H436.894H436.767L436.457 358.084L436.142 358.123H436.009H435.832H435.699H435.567H435.517H435.384H435.251H435.202H435.074H434.942H434.77H434.648H434.521H434.466H434.344H434.222H434.029H433.907H433.714H433.592H433.531H433.459H433.393H433.31H427.507C426.097 358.123 424.741 358.062 423.353 358.001L423.171 361.873C424.603 361.94 426.069 361.984 427.524 362.001H428.21C432.328 362.009 436.439 361.638 440.49 360.894L439.782 357.089L439.754 358.04ZM466.654 345.771C462.643 348.984 458.237 351.67 453.544 353.764H453.489H453.433H453.378H453.323L453.273 353.792H453.223H453.168H453.113H453.057L452.609 353.985H452.559H452.521H452.493L453.998 357.553C459.429 355.257 464.518 352.223 469.121 348.537L466.698 345.517L466.654 345.771ZM484.565 322.229C484.471 322.445 484.377 322.66 484.277 322.876V322.92V322.959V322.998V323.031V323.064V323.092V323.12V323.147V323.18V323.214V323.252V323.297C483.54 324.908 482.73 326.477 481.849 328.004L481.794 328.098V328.142V328.186L481.76 328.247V328.286V328.319V328.352V328.391V328.435V328.485V328.518V328.551V328.585V328.618V328.651V328.684L481.733 328.728V328.767V328.795V328.828V328.856V328.889V328.917V328.95V328.977V329.011L481.694 329.077V329.116V329.149V329.177V329.21V329.243V329.276L481.617 329.403V329.442V329.475V329.508V329.547C481.583 329.591 481.556 329.636 481.528 329.68V329.719L481.5 329.757V329.796V329.84L481.406 329.979V330.017V330.056L481.379 330.1V330.145L481.279 330.294V330.338V330.382V330.427L481.251 330.471L481.152 330.626L481.119 330.67V330.709V330.753L481.085 330.797C481.041 330.869 480.991 330.936 480.947 331.002L480.92 331.046V331.09L480.886 331.135L480.748 331.345L480.715 331.389L480.682 331.439C480.621 331.522 480.56 331.61 480.505 331.699L480.472 331.749L480.433 331.798L480.217 332.108L480.184 332.158L479.963 332.468L479.924 332.518C479.271 333.43 478.591 334.321 477.894 335.195L480.914 337.618C483.022 334.985 484.926 332.197 486.611 329.276C487.867 327.106 488.994 324.863 489.986 322.561L486.434 321.023L484.565 322.229ZM494.04 293.05L490.168 293.111C490.168 294.77 490.168 296.43 490.08 298.089V298.139V298.189V298.46V298.51V298.56C490.08 298.632 490.08 298.703 490.08 298.775V298.947V299.151V299.323C490.08 299.378 490.08 299.428 490.08 299.478V299.765C490.08 299.815 490.08 299.865 490.08 299.909V300.142V300.247V300.485V300.617V300.872V301.01V301.242V301.392V301.624V301.729V301.978V302.122V302.354V302.493V302.725C490.08 302.775 490.08 302.824 490.08 302.874V303.084C490.08 303.151 490.08 303.217 490.052 303.284V303.411L490.019 303.671V303.792C490.019 303.881 490.019 303.964 489.98 304.052V304.169C489.98 304.263 489.953 304.351 489.941 304.44V304.495L489.892 304.821C489.659 306.429 489.375 308.022 489.04 309.601L492.829 310.408C494.033 304.705 494.59 298.884 494.488 293.056L494.04 293.05ZM487.242 262.538L483.73 264.165C483.873 264.48 484.023 264.801 484.161 265.122V265.16V265.193V265.227L484.211 265.337V265.365V265.42V265.465V265.498V265.531V265.559V265.586V265.619L484.25 265.702V265.736V265.769V265.802C484.266 265.847 484.284 265.891 484.305 265.935V265.973V266.012C484.305 266.084 484.36 266.156 484.393 266.228V266.272C484.972 267.685 485.507 269.126 485.997 270.598V270.642L486.075 270.874V270.919C486.075 270.991 486.125 271.068 486.147 271.145V271.184C486.147 271.262 486.197 271.333 486.219 271.411V271.45V271.494C486.219 271.555 486.257 271.616 486.274 271.676V271.715V271.754L486.313 271.892V271.936V271.975V272.008L486.357 272.141V272.18V272.219V272.252V272.29V272.379V272.412V272.445V272.506V272.539V272.628V272.661V272.694V272.722V272.755V272.844V272.877V272.91V272.971V273.004L486.385 273.093V273.153V273.258V273.303V273.358V273.402V273.447C486.894 275.253 487.331 277.079 487.696 278.923V278.972V279.022V279.127L491.496 278.381C491.087 276.306 490.589 274.232 490.019 272.213C489.004 268.625 487.709 265.122 486.147 261.736L487.242 262.538ZM467.329 238.117L465.116 241.275C467.211 242.758 469.195 244.393 471.051 246.165L471.145 246.259L471.245 246.353V246.381L471.333 246.475L471.427 246.563L471.522 246.652L471.61 246.74V246.768L471.665 246.818L471.721 246.868H471.748L471.798 246.912L471.876 246.995V247.022L471.92 247.067V247.094L471.958 247.133L471.992 247.166H472.019V247.194L472.053 247.233L472.086 247.271V247.299L472.119 247.338L472.152 247.376L472.191 247.421V247.454L472.23 247.493L472.257 247.526L472.29 247.559L472.324 247.598L472.357 247.631L472.395 247.67V247.708L472.434 247.753V247.786L472.473 247.825L472.506 247.858L472.545 247.902L472.578 247.941L472.655 248.024L472.694 248.068L472.733 248.112L472.766 248.156L472.805 248.201L472.844 248.239L472.882 248.289L472.927 248.333L473.004 248.422L473.087 248.51L473.17 248.604C473.199 248.633 473.225 248.665 473.247 248.698L473.286 248.748L473.369 248.848L473.452 248.942L473.535 249.036C474.272 249.91 475.001 250.81 475.72 251.735L478.801 249.395C475.214 244.659 470.923 240.5 466.078 237.06L467.329 238.117ZM437.658 227.469L437.276 231.341C442.788 231.892 448.206 233.153 453.395 235.091L454.761 231.468C449.255 229.412 443.506 228.075 437.658 227.491V227.469ZM423.419 227.778L423.11 227.834C418.556 228.588 414.11 229.888 409.867 231.706C409.961 232.652 410.055 233.597 410.144 234.538C410.188 234.953 410.227 235.368 410.265 235.777C411.516 235.185 412.771 234.671 414.005 234.217C417.171 233.074 420.432 232.217 423.751 231.656H423.868H424.039L423.419 227.834V227.778ZM409.718 203.235L405.94 204.07C407.129 209.541 407.97 215.012 408.645 220.438L412.517 219.957C411.726 213.59 410.857 208.28 409.751 203.246L409.718 203.235ZM400.093 174.172L396.553 175.754C396.979 176.7 397.388 177.652 397.792 178.603C397.831 178.703 397.875 178.797 397.914 178.896L397.986 179.068V179.118V179.167L398.024 179.272V179.317V179.355V179.4V179.46V179.494V179.527V179.56V179.599V179.632V179.676V179.726V179.765V179.798V179.837V179.87V179.909V179.942V180.003V180.036V180.074V180.102V180.146V180.174L398.052 180.24V180.29V180.346C398.052 180.39 398.091 180.44 398.113 180.489V180.539V180.6L398.14 180.672V180.733L398.168 180.799L398.229 180.948V181.015L398.29 181.164C399.573 184.395 400.744 187.664 401.802 190.972L405.492 189.788C403.756 184.383 401.725 179.078 399.407 173.896L400.093 174.172ZM384.937 147.621L381.773 149.834C382.049 150.215 382.326 150.603 382.586 150.99L382.625 151.051L382.669 151.111L382.713 151.178L382.752 151.233L382.779 151.272V151.305V151.338V151.366V151.399L382.829 151.477V151.521L382.862 151.565V151.609C383.994 153.265 385.101 154.945 386.181 156.649C386.226 156.72 386.275 156.792 386.32 156.87V156.908V156.947V156.98L386.358 157.047L386.397 157.108L386.425 157.152L386.463 157.213V157.251V157.279L386.491 157.323V157.357L386.519 157.395V157.428V157.462V157.489L386.552 157.545V157.578V157.611V157.65V157.694V157.727V157.76V157.794V157.832V157.877V157.91V157.937V157.971V158.009L386.58 158.054V158.087V158.12V158.159L386.613 158.214V158.242V158.28V158.308L386.651 158.369L386.685 158.419L386.718 158.474L386.762 158.54L386.795 158.596L386.878 158.734C387.83 160.305 388.752 161.892 389.644 163.497L393.024 161.616C391.752 159.32 390.402 157.03 389.008 154.807C387.404 152.24 385.689 149.69 383.963 147.223L384.937 147.621ZM364.913 124.51L362.246 127.32C366.263 131.12 370.069 135.136 373.647 139.351L376.601 136.846C372.931 132.52 369.031 128.395 364.918 124.488L364.913 124.51ZM340.773 105.736L338.71 109.006C343.389 111.961 347.903 115.169 352.234 118.614L354.641 115.566C350.201 112.034 345.571 108.747 340.773 105.72V105.736ZM313.431 92.0293L312.048 95.6525L313.906 96.3771L314.023 96.4214H314.083L314.189 96.4656H314.244L314.338 96.5043H314.388L314.476 96.5375H314.509H314.554L314.62 96.5652H314.664H314.697H314.753H314.808H314.847H314.891H314.946H314.996H315.035L315.096 96.5928H315.134H315.19H315.223L315.3 96.626L315.367 96.6537L315.444 96.6869L315.516 96.7145L315.599 96.7477L315.671 96.7809L315.76 96.8141L315.937 96.8915L316.119 96.969L316.307 97.0464C318.686 98.0421 321.033 99.0986 323.349 100.216L323.537 100.304L323.625 100.349L323.708 100.393L323.797 100.432L323.88 100.47L323.963 100.515H324.001H324.046H324.096H324.123L324.328 100.614L324.4 100.653C325.246 101.068 326.059 101.494 326.917 101.92L328.692 98.4791C327.663 97.9259 326.612 97.4225 325.572 96.9136C321.545 94.95 317.369 93.1411 313.16 91.5315L313.431 92.0293ZM283.926 83.981L283.278 87.7977C284.495 88.0079 285.712 88.231 286.929 88.467H286.99H287.051H287.106H287.156H287.206H287.289H287.333H287.377H287.46H287.504H287.549H287.709H287.748H287.781H287.908H287.941H288.069H288.107H288.262H288.301H288.39H288.439H288.467H288.572H288.622H288.672H288.721H288.799H288.849H288.893H288.976H289.02H289.109H289.147H289.369H289.407H289.562H289.601H289.689H289.728H289.817H289.861H289.922H289.966H290.01H290.055H290.138H290.182H290.232H290.281H290.326H290.37H290.425L290.779 88.5445H290.829H291.028H291.067H291.155H291.194H291.255H291.288H291.349H291.382H291.476H291.515H291.581H291.614H291.708H291.742H291.808H291.874H291.908H291.974H292.035H292.074H292.134H292.168H292.234H292.3H292.339H292.389H292.433H292.477H292.533H292.599L292.925 88.6219H292.981H293.036H293.097H293.152H293.202H293.263H293.318H293.368H293.418H293.467H293.517H293.567H293.617H293.672H293.727H293.777H293.827H293.882H293.938H293.998C294.601 88.7713 295.204 88.9206 295.807 89.081C296.454 89.247 297.096 89.4184 297.738 89.5954H297.799H297.854H297.909H297.97H298.031H298.092H298.153H298.214H298.269H298.324H298.374H298.429H298.485H298.54L298.982 89.7227L300.044 86C294.585 84.4477 289.045 83.1939 283.45 82.2441L283.926 83.981ZM258.143 81.8015V85.6736H260.605C263.16 85.7179 265.714 85.8266 268.266 86H268.454H268.554H268.642H269.256H269.428L270.124 86.0553L270.434 82.1832C266.358 81.8569 262.225 81.6909 258.16 81.6909L258.143 81.8015ZM429.709 292.093L428.298 294.959C428.386 295.004 428.477 295.045 428.569 295.08C428.669 295.119 428.785 295.152 428.901 295.185L429.709 292.093ZM429.073 290.749L426.406 293.554C426.67 293.808 426.947 294.048 427.236 294.273H427.28H427.363H427.419L427.469 294.311L427.524 294.35H427.579H427.646H427.684C427.883 294.472 428.049 294.566 428.188 294.632L429.598 291.767L428.791 294.859C429.13 294.941 429.476 294.993 429.825 295.014H430.378V291.142C430.193 291.143 430.008 291.132 429.825 291.109C429.514 290.902 429.224 290.667 428.956 290.406L429.073 290.749ZM434.261 276.4C433.924 276.439 433.592 276.494 433.271 276.561H432.325H432.281H432.231H432.187L432.054 276.605L431.966 276.638L431.883 276.677H431.838L431.318 277.025L431.158 277.131L431.009 277.23C429.583 278.226 428.069 279.087 426.484 279.802H426.445C424.408 280.692 422.231 281.218 420.012 281.357C420.521 282.64 421.074 283.89 421.672 285.09C427.319 284.382 431.363 281.661 433.387 280.3L433.769 280.046C434.302 279.839 434.86 279.703 435.428 279.642L434.969 275.797L434.261 276.4ZM437.851 284.747C437.851 287.331 437.088 289.034 436.584 289.554C436.081 290.074 434.848 290.738 432.762 291.214C432.238 291.335 431.705 291.42 431.169 291.468L431.512 295.34C432.206 295.274 432.895 295.165 433.575 295.014C436.114 294.461 438.161 293.482 439.323 292.292H439.394H439.422L439.555 292.143C440.106 291.451 440.536 290.672 440.827 289.836V289.776V289.742C440.827 289.687 440.871 289.632 440.888 289.576C440.888 289.576 440.888 289.516 440.888 289.488V289.46C441.261 288.128 441.447 286.75 441.441 285.367H437.569L437.851 284.747Z" fill="white"/>
<path d="M161.586 299.284H131.931C120.105 299.284 110.519 308.871 110.519 320.697V375.437C110.519 387.262 120.105 396.849 131.931 396.849H161.586C173.411 396.849 182.998 387.262 182.998 375.437V320.697C182.998 308.871 173.411 299.284 161.586 299.284Z" fill="#7A7A7A"/>
<path d="M290.746 299.284H261.091C249.265 299.284 239.679 308.871 239.679 320.697V375.437C239.679 387.262 249.265 396.849 261.091 396.849H290.746C302.571 396.849 312.158 387.262 312.158 375.437V320.697C312.158 308.871 302.571 299.284 290.746 299.284Z" fill="#7A7A7A"/>
<path d="M453.134 250.081C445.694 246.071 434.399 243.863 426.069 245.274C422.302 245.91 417.661 247.254 414.375 249.229C409.552 252.133 409.469 258.079 411.786 262.665C412.848 264.784 414.552 267.312 416.92 267.964C420.089 268.838 422.285 266.227 424.868 264.922C427.382 263.68 430.099 262.899 432.889 262.615C438.697 261.974 444.876 263.451 449.168 267.594C453.461 271.737 455.43 278.01 455.552 284.044C455.69 290.533 453.776 297.281 449.24 301.922C445.871 305.357 441.297 307.454 436.601 308.466C432.336 309.412 427.75 309.572 423.696 308.007C419.779 306.53 416.56 303.582 413.944 300.34C405.735 290.096 402.659 276.062 400.07 263.473C395.773 242.569 396.564 220.83 390.761 200.308C387.228 187.704 381.912 175.669 374.974 164.569C361.163 142.51 341.459 124.751 318.088 113.298C299.413 104.209 278.918 99.4802 258.148 99.4688H214.261C138.557 99.4688 76.615 161.422 76.615 237.115V253.04C71.0807 255.604 65.9861 259.026 61.5195 263.18C53.4509 270.744 47.6393 280.399 44.7313 291.069C44.5391 291.77 44.4868 292.502 44.5773 293.223C44.6679 293.943 44.8996 294.639 45.2592 295.271C45.6187 295.902 46.0991 296.456 46.6729 296.902C47.2467 297.347 47.9027 297.676 48.6034 297.868C49.0821 298.003 49.5772 298.072 50.0747 298.072C51.2861 298.072 52.4639 297.674 53.4272 296.94C54.3906 296.205 55.0861 295.175 55.4071 294.007C57.7685 285.313 62.4964 277.444 69.0645 271.278C71.3816 269.119 73.9135 267.202 76.6205 265.558V391.207C76.6395 396.878 78.9011 402.311 82.9118 406.321C86.9224 410.33 92.3563 412.59 98.0275 412.608H121.636C127.294 412.594 132.718 410.346 136.728 406.354C140.738 402.361 143.009 396.948 143.048 391.29V384.099C143.048 350.716 170.363 323.396 203.751 323.396H208.73C242.107 323.396 269.422 350.716 269.422 384.099V391.29C269.464 396.948 271.737 402.361 275.747 406.352C279.758 410.344 285.181 412.592 290.84 412.608H314.448C320.123 412.59 325.56 410.328 329.572 406.315C333.584 402.302 335.845 396.864 335.861 391.19V290.915C338.626 286.268 344.457 290.218 344.457 290.218C347.477 291.849 363.972 313.218 368.613 317.875C373.254 322.533 387.901 344.825 427.623 345.284C444.926 345.489 460.74 336.721 469.447 321.653C482.38 299.212 477.263 263.091 453.134 250.081Z" fill="#B7B7B7"/>
<path d="M245.088 289.267C276.695 289.267 302.318 263.644 302.318 232.038C302.318 200.431 276.695 174.809 245.088 174.809C213.482 174.809 187.859 200.431 187.859 232.038C187.859 263.644 213.482 289.267 245.088 289.267Z" fill="#7A7A7A"/>
<path d="M340.613 231.047C346.677 231.047 351.593 226.131 351.593 220.067C351.593 214.003 346.677 209.087 340.613 209.087C334.549 209.087 329.633 214.003 329.633 220.067C329.633 226.131 334.549 231.047 340.613 231.047Z" fill="#333333"/>
<path d="M58.6046 311.028C58.0597 311.029 57.5199 310.922 57.0167 310.713C56.5134 310.504 56.0566 310.197 55.6728 309.811L36.401 290.544C36.0157 290.159 35.71 289.702 35.5014 289.198C35.2929 288.695 35.1855 288.155 35.1855 287.61C35.1855 287.065 35.2929 286.525 35.5014 286.022C35.71 285.518 36.0157 285.061 36.401 284.675C36.7864 284.29 37.2439 283.984 37.7474 283.776C38.2509 283.567 38.7905 283.46 39.3355 283.46C39.8805 283.46 40.4201 283.567 40.9236 283.776C41.4271 283.984 41.8846 284.29 42.27 284.675L61.5363 303.947C62.1157 304.527 62.5102 305.266 62.67 306.071C62.8298 306.875 62.7476 307.708 62.4339 308.466C62.1202 309.224 61.5891 309.871 60.9075 310.327C60.2259 310.783 59.4245 311.027 58.6046 311.028Z" fill="#7A7A7A"/>
<path d="M39.3432 311.028C38.5232 311.027 37.7218 310.783 37.0403 310.327C36.3587 309.871 35.8275 309.224 35.5138 308.466C35.2001 307.708 35.118 306.875 35.2778 306.071C35.4375 305.266 35.8321 304.527 36.4115 303.947L55.6833 284.675C56.4661 283.92 57.5143 283.502 58.602 283.512C59.6898 283.522 60.7301 283.959 61.499 284.729C62.2678 285.498 62.7036 286.539 62.7126 287.627C62.7215 288.715 62.3028 289.762 61.5468 290.544L42.2805 309.811C41.8953 310.197 41.4375 310.504 40.9334 310.713C40.4293 310.921 39.8889 311.028 39.3432 311.028Z" fill="#7A7A7A"/>
<path d="M342.942 258.096C349.871 258.096 355.487 254.976 355.487 251.126C355.487 247.277 349.871 244.157 342.942 244.157C336.013 244.157 330.396 247.277 330.396 251.126C330.396 254.976 336.013 258.096 342.942 258.096Z" fill="#F4CEE5"/>
</svg>
