<svg width="84" height="84" viewBox="0 0 84 84" fill="none" xmlns="http://www.w3.org/2000/svg">
<path d="M41.5598 12C29.2229 12 25.6148 12.0127 24.9134 12.0709C22.3817 12.2814 20.8063 12.68 19.09 13.5345C17.7673 14.1913 16.7242 14.9526 15.6946 16.0199C13.8197 17.9662 12.6834 20.3607 12.272 23.2069C12.072 24.5887 12.0138 24.8705 12.002 31.9285C11.9975 34.2811 12.002 37.3774 12.002 41.5305C12.002 53.8574 12.0157 57.4618 12.0747 58.1618C12.2793 60.6253 12.6656 62.1753 13.4838 63.8707C15.0474 67.1161 18.0337 69.5524 21.5517 70.4614C22.7699 70.775 24.1153 70.9478 25.8425 71.0296C26.5743 71.0614 34.0332 71.0841 41.4966 71.0841C48.96 71.0841 56.4234 71.075 57.137 71.0387C59.137 70.9446 60.2983 70.7887 61.5823 70.4569C65.1231 69.5433 68.0549 67.1433 69.6503 63.8525C70.4525 62.198 70.8593 60.589 71.0434 58.2541C71.0834 57.745 71.1002 49.6284 71.1002 41.5227C71.1002 33.4157 71.0821 25.3141 71.0421 24.8051C70.8557 22.4324 70.4489 20.837 69.6207 19.1507C68.9412 17.7703 68.1867 16.7394 67.0913 15.6853C65.1363 13.8181 62.7455 12.6818 59.8965 12.2709C58.5161 12.0714 58.2411 12.0123 51.1777 12H41.5598Z" fill="url(#paint0_radial_811_62)"/>
<path d="M41.5598 12C29.2229 12 25.6148 12.0127 24.9134 12.0709C22.3817 12.2814 20.8063 12.68 19.09 13.5345C17.7673 14.1913 16.7242 14.9526 15.6946 16.0199C13.8197 17.9662 12.6834 20.3607 12.272 23.2069C12.072 24.5887 12.0138 24.8705 12.002 31.9285C11.9975 34.2811 12.002 37.3774 12.002 41.5305C12.002 53.8574 12.0157 57.4618 12.0747 58.1618C12.2793 60.6253 12.6656 62.1753 13.4838 63.8707C15.0474 67.1161 18.0337 69.5524 21.5517 70.4614C22.7699 70.775 24.1153 70.9478 25.8425 71.0296C26.5743 71.0614 34.0332 71.0841 41.4966 71.0841C48.96 71.0841 56.4234 71.075 57.137 71.0387C59.137 70.9446 60.2983 70.7887 61.5823 70.4569C65.1231 69.5433 68.0549 67.1433 69.6503 63.8525C70.4525 62.198 70.8593 60.589 71.0434 58.2541C71.0834 57.745 71.1002 49.6284 71.1002 41.5227C71.1002 33.4157 71.0821 25.3141 71.0421 24.8051C70.8557 22.4324 70.4489 20.837 69.6207 19.1507C68.9412 17.7703 68.1867 16.7394 67.0913 15.6853C65.1363 13.8181 62.7455 12.6818 59.8965 12.2709C58.5161 12.0714 58.2411 12.0123 51.1777 12H41.5598Z" fill="url(#paint1_radial_811_62)"/>
<path d="M41.8193 20C35.8941 20 35.1505 20.0259 32.8232 20.1318C30.5006 20.2382 28.9152 20.6059 27.528 21.1454C26.093 21.7027 24.8758 22.4481 23.6631 23.6613C22.4495 24.8739 21.704 26.0912 21.145 27.5257C20.6041 28.9134 20.2359 30.4992 20.1314 32.821C20.0273 35.1482 20 35.8922 20 41.8175C20 47.7428 20.0264 48.4841 20.1318 50.8113C20.2386 53.134 20.6063 54.7194 21.1454 56.1066C21.7031 57.5416 22.4486 58.7588 23.6617 59.9715C24.8739 61.1851 26.0912 61.9324 27.5252 62.4896C28.9134 63.0292 30.4992 63.3969 32.8214 63.5032C35.1486 63.6091 35.8918 63.635 41.8166 63.635C47.7423 63.635 48.4837 63.6091 50.8109 63.5032C53.1335 63.3969 54.7208 63.0292 56.1089 62.4896C57.5434 61.9324 58.7588 61.1851 59.9711 59.9715C61.1847 58.7588 61.9301 57.5416 62.4892 56.1071C63.0255 54.7194 63.3937 53.1335 63.5028 50.8118C63.6073 48.4846 63.6346 47.7428 63.6346 41.8175C63.6346 35.8922 63.6073 35.1486 63.5028 32.8214C63.3937 30.4988 63.0255 28.9134 62.4892 27.5261C61.9301 26.0912 61.1847 24.8739 59.9711 23.6613C58.7575 22.4477 57.5439 21.7022 56.1075 21.1454C54.7167 20.6059 53.1304 20.2382 50.8077 20.1318C48.4805 20.0259 47.7396 20 41.8125 20H41.8193ZM39.8621 23.9317C40.443 23.9308 41.0912 23.9317 41.8193 23.9317C47.6446 23.9317 48.3351 23.9526 50.6354 24.0572C52.7626 24.1544 53.9172 24.5099 54.6862 24.8085C55.7044 25.2039 56.4303 25.6766 57.1934 26.4403C57.957 27.2039 58.4297 27.9311 58.8261 28.9493C59.1247 29.7174 59.4806 30.8719 59.5774 32.9992C59.682 35.2991 59.7047 35.99 59.7047 41.8125C59.7047 47.6351 59.682 48.326 59.5774 50.6259C59.4802 52.7531 59.1247 53.9076 58.8261 54.6758C58.4307 55.6939 57.957 56.4189 57.1934 57.1821C56.4298 57.9457 55.7048 58.4184 54.6862 58.8138C53.9181 59.1138 52.7626 59.4683 50.6354 59.5656C48.3355 59.6702 47.6446 59.6929 41.8193 59.6929C35.9936 59.6929 35.3032 59.6702 33.0032 59.5656C30.876 59.4674 29.7215 59.112 28.952 58.8134C27.9339 58.4179 27.2066 57.9452 26.443 57.1816C25.6794 56.418 25.2067 55.6926 24.8103 54.674C24.5117 53.9058 24.1558 52.7513 24.059 50.6241C23.9544 48.3241 23.9335 47.6333 23.9335 41.8071C23.9335 35.9809 23.9544 35.2936 24.059 32.9937C24.1562 30.8665 24.5117 29.712 24.8103 28.9429C25.2058 27.9248 25.6794 27.1975 26.443 26.4339C27.2066 25.6703 27.9339 25.1976 28.952 24.8012C29.7211 24.5012 30.876 24.1467 33.0032 24.049C35.0159 23.9581 35.7959 23.9308 39.8621 23.9262V23.9317ZM53.4653 27.5543C52.0199 27.5543 50.8472 28.7256 50.8472 30.1715C50.8472 31.6169 52.0199 32.7896 53.4653 32.7896C54.9108 32.7896 56.0835 31.6169 56.0835 30.1715C56.0835 28.7261 54.9108 27.5534 53.4653 27.5534V27.5543ZM41.8193 30.6133C35.6318 30.6133 30.6151 35.63 30.6151 41.8175C30.6151 48.0051 35.6318 53.0195 41.8193 53.0195C48.0069 53.0195 53.0217 48.0051 53.0217 41.8175C53.0217 35.63 48.0069 30.6133 41.8193 30.6133ZM41.8193 34.545C45.8356 34.545 49.0918 37.8008 49.0918 41.8175C49.0918 45.8338 45.8356 49.09 41.8193 49.09C37.8026 49.09 34.5468 45.8338 34.5468 41.8175C34.5468 37.8008 37.8026 34.545 41.8193 34.545Z" fill="white"/>
<defs>
<radialGradient id="paint0_radial_811_62" cx="0" cy="0" r="1" gradientUnits="userSpaceOnUse" gradientTransform="translate(27.6986 75.6348) rotate(-90) scale(58.5567 54.4772)">
<stop stop-color="#FFDD55"/>
<stop offset="0.1" stop-color="#FFDD55"/>
<stop offset="0.5" stop-color="#FF543E"/>
<stop offset="1" stop-color="#C837AB"/>
</radialGradient>
<radialGradient id="paint1_radial_811_62" cx="0" cy="0" r="1" gradientUnits="userSpaceOnUse" gradientTransform="translate(2.1004 16.2563) rotate(78.6776) scale(26.1754 107.923)">
<stop stop-color="#3771C8"/>
<stop offset="0.128" stop-color="#3771C8"/>
<stop offset="1" stop-color="#6600FF" stop-opacity="0"/>
</radialGradient>
</defs>
</svg>
