<svg width="84" height="84" viewBox="0 0 84 84" fill="none" xmlns="http://www.w3.org/2000/svg">
<path d="M72 42C72 25.4309 58.5679 12 42 12C25.4321 12 12 25.4309 12 42C12 56.9734 22.9711 69.3851 37.3123 71.6354V50.6722H29.6948V42H37.3123V35.3911C37.3123 27.8718 41.7917 23.7192 48.6433 23.7192C51.9258 23.7192 55.3587 24.3111 55.3587 24.3111V31.693H51.5766C47.849 31.693 46.6877 34.0061 46.6877 36.3783V42.0059H55.0071L53.6778 50.6781H46.6841V71.6354C61.0289 69.3851 72 56.9734 72 42Z" fill="#1877F2"/>
<path d="M53.6778 50.6718L55.0071 41.9995H46.6841V36.3719C46.6841 34.0044 47.8454 31.6866 51.5731 31.6866H55.3552V24.3106C55.3552 24.3106 51.9223 23.7188 48.6397 23.7188C41.7881 23.7188 37.3088 27.8714 37.3088 35.3906V41.9995H29.6948V50.6718H37.3123V71.6349C40.4185 72.1211 43.5815 72.1211 46.6877 71.6349V50.6718H53.6778Z" fill="white"/>
</svg>
