<svg width="84" height="84" viewBox="0 0 84 84" fill="none" xmlns="http://www.w3.org/2000/svg">
<path fill-rule="evenodd" clip-rule="evenodd" d="M52.321 12C53.2724 20.1125 58.1387 25.8364 66.0111 26.3413V34.0358L65.9603 34.0406V27.5043C58.0878 26.9999 53.5616 22.1618 52.6104 14.0494L44.2708 14.0492V48.179C45.4742 63.5412 33.4901 63.9975 28.906 58.173C34.283 61.532 43.0135 59.3487 41.9782 46.1298V12H52.3212H52.321ZM29.9138 68.5784C25.2016 67.61 20.9168 64.7979 18.4005 60.6861C12.2874 50.6965 17.7978 34.4155 35.5282 32.74V42.3593L35.4992 42.364V35.147C19.0612 37.7619 17.4108 55.3988 21.9632 62.7353C23.7187 65.5646 26.6007 67.5546 29.9136 68.5784H29.9138Z" fill="#26F4EE"/>
<path fill-rule="evenodd" clip-rule="evenodd" d="M54.709 14.0504C55.3301 19.3464 57.4751 23.854 61.0794 26.4866C56.2022 24.61 53.344 20.3031 52.6103 14.0499L54.709 14.0504ZM65.96 28.6467C66.6309 28.789 67.3306 28.8853 68.0589 28.9319V38.0529C63.4922 38.502 59.4959 37.0005 54.8389 34.2033L55.5538 49.8241C55.5538 54.8616 55.5726 57.1639 52.8662 61.7981C46.7949 72.1942 35.8668 73.0159 28.4769 68.0642C38.1401 72.0472 52.7685 67.2128 52.74 49.8241V32.775C57.397 35.5722 61.3933 37.0737 65.96 36.6245V28.6467ZM35.4991 35.2396C36.4543 35.041 37.4569 34.8883 38.5113 34.7886V44.4079C34.6719 45.0396 32.2333 46.2173 31.0929 48.3955C27.5013 55.2551 32.1255 60.6957 37.2983 61.5134C31.2853 62.5114 24.2341 56.4246 28.4379 48.3955C29.5781 46.2176 31.6596 45.0396 35.4991 44.4079V35.2396Z" fill="#FB2C53"/>
<path fill-rule="evenodd" clip-rule="evenodd" d="M52.6102 14.049C53.5616 22.1615 58.0878 26.9994 65.96 27.504V36.6247C61.3933 37.0741 57.397 35.5724 52.7401 32.7752V49.8243C52.7766 72.0767 28.8103 73.7699 21.9632 62.7348C17.4109 55.3981 19.0611 37.7614 35.4991 35.1465V44.4079C31.6597 45.0396 29.5781 46.2176 28.4379 48.3955C21.3917 61.854 45.9688 69.8613 44.2704 48.1786V14.0488L52.61 14.049H52.6102Z" fill="black"/>
</svg>
