<svg width="84" height="84" viewBox="0 0 84 84" fill="none" xmlns="http://www.w3.org/2000/svg">
<path fill-rule="evenodd" clip-rule="evenodd" d="M41.9753 12C47.9098 11.9951 53.7124 13.7505 58.6491 17.0439C63.5859 20.3374 67.4349 25.0211 69.7093 30.5024C71.9837 35.9838 72.5813 42.0165 71.4266 47.8376C70.2718 53.6586 67.4165 59.0064 63.2219 63.2045C59.0273 67.4025 53.6819 70.2622 47.8618 71.4217C42.0417 72.5813 36.0084 71.9886 30.5252 69.7187C25.042 67.4488 20.3552 63.6037 17.0576 58.6697C13.7601 53.7357 12 47.9345 12 42C12 34.0478 15.1573 26.4209 20.7781 20.7955C26.3988 15.1701 34.0231 12.0065 41.9753 12Z" fill="#E60123"/>
<path fill-rule="evenodd" clip-rule="evenodd" d="M32.7433 71C32.2198 70.8316 31.7024 70.6444 31.1912 70.4448L31.142 70.0081C30.8833 67.6249 30.6493 63.9691 31.2467 61.3676C31.7887 59.0094 34.7387 46.3949 34.7387 46.3949C34.1437 44.9815 33.8458 43.4581 33.8642 41.9218C33.8642 37.7169 36.2415 34.5976 39.2408 34.5976C41.7968 34.5976 43.01 36.5191 43.01 38.8274C43.01 41.404 41.3841 45.2657 40.5465 48.8529C39.8321 51.8537 42.0185 54.2992 44.9439 54.2992C50.2344 54.3117 54.2992 48.6532 54.2992 40.4994C54.2992 33.275 49.1874 28.2467 41.883 28.2467C33.4146 28.2467 28.4321 34.6849 28.4321 41.3291C28.4438 43.7963 29.2216 46.1972 30.6554 48.1916C30.7614 48.3067 30.8359 48.4478 30.8715 48.601C30.9071 48.7541 30.9027 48.9141 30.8587 49.065C30.6246 50.0257 30.1135 52.0533 30.0272 52.4838C29.8979 53.0452 29.59 53.1762 29.0357 52.8955C25.3404 51.1487 23 45.6462 23 41.2355C23 31.7341 29.8055 23 42.6528 23C52.9812 23.0062 61 30.4489 61 40.4307C61 50.818 54.5455 59.1466 45.5721 59.1466C42.5789 59.1466 39.7274 57.562 38.7605 55.6842L36.9066 62.8898C36.1568 65.883 34.7316 68.6592 32.7433 71Z" fill="white"/>
</svg>
