<svg width="30" height="34" viewBox="0 0 30 34" fill="none" xmlns="http://www.w3.org/2000/svg">
<path d="M10.0499 3.40332V15.9873C10.0499 15.9873 14.4913 15.9873 16.87 15.8075C18.7386 15.481 19.0851 15.3011 19.4289 13.4334L20.1164 10.6997H22.1486L21.8048 16.6735L21.985 22.7939H19.9335L19.4261 20.4033C18.9188 18.7017 18.2312 18.3586 16.8672 18.1925C15.1622 18.0127 10.0471 18.0127 10.0471 18.0127V28.5658C10.0471 30.5939 11.0785 31.4627 13.4572 31.4627H20.621C22.8362 31.4627 25.0457 31.2829 26.4264 28.0594L28.2783 23.9699H30C29.8198 24.8193 28.9687 32.3149 28.8051 34C28.8051 34 22.3288 33.8368 19.6063 33.8368H7.32465L0 34V32.1517L2.37871 31.6287C4.10036 31.2856 4.60771 30.7793 4.60771 29.418C4.60771 29.418 4.78791 24.8221 4.78791 17.1605C4.78791 9.521 4.60771 4.9196 4.60771 4.9196C4.60771 3.39779 4.10036 3.05469 2.37871 2.70882L0 2.20801V0.343099L7.16385 0.489746H20.804C23.5265 0.489746 28.1148 0 28.1148 0C28.1148 0 27.9512 2.88037 27.771 9.68701H25.9024L25.2149 7.29639C24.5412 4.23617 23.5237 2.71436 21.6385 2.71436H10.9177C10.0499 2.71712 10.0499 2.88037 10.0499 3.40332Z" fill="white"/>
</svg>
